<?xml version="1.0" encoding="utf-8"?>
<!-- Generator: Adobe Illustrator 18.1.1, SVG Export Plug-In . SVG Version: 6.00 Build 0)  -->
<!DOCTYPE svg PUBLIC "-//W3C//DTD SVG 1.1//EN" "http://www.w3.org/Graphics/SVG/1.1/DTD/svg11.dtd">
<svg version="1.1" id="Layer_1" xmlns="http://www.w3.org/2000/svg" xmlns:xlink="http://www.w3.org/1999/xlink" x="0px" y="0px"
	 viewBox="0 0 20 27" enable-background="new 0 0 20 27" xml:space="preserve">
<path fill="#2A484F" d="M16.6,12.2L16.6,12.2L16.6,12.2c0,0-0.1-0.1-0.1-0.1c-0.4-0.5-0.2-0.9,0-1.3c0.1-0.3,0.2-0.5,0.4-0.8l0,0
	l0,0c0.1-0.3,0.3-0.5,0.4-0.8c0.3-0.5,0.6-1.1,0.8-1.6l0,0v0c0.3-0.6,0.4-1.1,0.5-1.6c0.1-0.7,0-1.3-0.2-1.8
	c-0.3-0.7-0.8-1.2-1.4-1.8c-0.6-0.4-1.2-0.8-2-1.1c-0.7-0.3-1.5-0.5-2.4-0.6c-0.8-0.1-1.7-0.2-2.5-0.2c-0.9,0-1.7,0.1-2.5,0.2
	C6.7,0.8,5.9,1,5.2,1.3c-0.8,0.3-1.5,0.7-2,1.1C2.5,2.9,2,3.5,1.8,4.1C1.5,4.7,1.4,5.3,1.5,5.9C1.6,6.4,1.7,7,2,7.5l0,0v0
	c0.3,0.6,0.5,1.1,0.8,1.6C3,9.5,3.1,9.8,3.2,10l0,0l0,0c0.1,0.3,0.3,0.5,0.4,0.8c0.2,0.4,0.2,0.9-0.1,1.3c-1.4,1.6-2.3,3.6-2.3,5.9
	c0,3.1,1.6,5.8,4,7.4c1.4,0.9,8.2,0.9,9.6,0c2.4-1.6,4-4.3,4-7.4C18.9,15.8,18,13.8,16.6,12.2z M4.1,5.1C4.6,3.9,7.1,3,10.1,3
	c2.9,0,5.5,0.9,6,2.2c0.1,0.3,0.1,0.7-0.2,1.4c-0.2,0.5-0.5,1-0.7,1.4c-0.2,0.3-0.3,0.6-0.5,0.9c-0.1,0.2-0.2,0.4-0.3,0.5
	c-0.1,0.1-0.3,0.8-1.1,0.5c0,0,0,0,0,0c-1-0.4-2.1-0.6-3.3-0.6c-1.2,0-2.3,0.2-3.3,0.6c-0.6,0.2-1-0.4-1-0.5
	C5.7,9.2,5.6,9.1,5.5,8.9C5.3,8.6,5.2,8.3,5,8C4.8,7.5,4.5,7,4.3,6.5C4,5.9,3.9,5.4,4.1,5.1z"/>
</svg>
