<?xml version="1.0" standalone="no"?>
<!DOCTYPE svg PUBLIC "-//W3C//DTD SVG 1.1//EN" "http://www.w3.org/Graphics/SVG/1.1/DTD/svg11.dtd" >
<svg>
<metadata>
Created by FontForge 20110222 at Sun Dec 30 15:46:30 2012
 By www-data
_null_name_substitute_
</metadata>
<defs>
<font id="Vincent-Regular" horiz-adv-x="460" >
  <font-face 
    font-family="Vincent"
    font-weight="400"
    font-stretch="condensed"
    units-per-em="1000"
    panose-1="0 0 5 6 0 0 0 0 0 0"
    ascent="800"
    descent="-200"
    x-height="759"
    cap-height="759"
    bbox="-20.1521 -103 621.152 784"
    underline-thickness="50"
    underline-position="-50"
    unicode-range="U+0020-007A"
  />
    <missing-glyph />
    <glyph glyph-name="A" unicode="A" horiz-adv-x="546" 
d="M0 12l176 738c2 6 8 11 15 11h81c6 1 13 -5 14 -11l180 -738c2 -7 -2 -12 -9 -12h-87c-7 0 -13 5 -15 12l-25 105c-1 6 -8 12 -15 11h-164c-7 0 -14 -5 -15 -11l-25 -105c-1 -7 -8 -12 -15 -12h-86c-7 0 -11 5 -10 12zM229 507l-62 -259c-1 -7 3 -12 9 -12h113
c7 0 11 6 9 12l-63 259c-2 7 -4 7 -6 0z" />
    <glyph glyph-name="B" unicode="B" 
d="M0 12v738c0 7 5 12 12 12h236c6 0 15 -4 20 -9l83 -83c5 -5 9 -14 9 -20v-189c0 -7 -4 -16 -9 -20l-29 -30c-5 -5 -5 -13 -1 -17l31 -31c4 -5 8 -14 8 -20v-231c0 -6 -4 -15 -9 -20l-83 -83c-5 -5 -14 -9 -20 -9h-130h-12h-12h-82c-7 0 -12 5 -12 12zM204 656h-86
c-7 0 -12 -5 -12 -12v-177c0 -7 5 -12 12 -12h86c6 0 16 3 20 8l22 21c4 5 8 14 8 21v101c0 6 -4 16 -8 20l-22 22c-4 4 -14 8 -20 8zM224 114l22 22c4 4 8 14 8 20v143c0 7 -4 16 -8 21l-20 20c-5 5 -14 9 -20 9h-88c-7 0 -12 -6 -12 -12v-219c0 -7 5 -12 12 -12h86
c6 0 16 4 20 8z" />
    <glyph glyph-name="C" unicode="C" horiz-adv-x="459" 
d="M8 669l84 84c4 4 14 8 20 8h135c6 0 16 -4 20 -8l83 -84c5 -4 9 -13 9 -20v-104c0 -6 -5 -12 -12 -12h-82c-6 0 -12 6 -12 12v60c0 7 -4 16 -8 21l-22 21c-4 4 -13 8 -20 8h-47c-7 0 -16 -4 -20 -8l-22 -21c-4 -5 -8 -14 -8 -21v-449c0 -7 4 -16 8 -20l22 -22
c4 -4 13 -8 20 -8h47c7 0 16 4 20 8l22 22c4 4 8 13 8 20v60c0 7 6 12 12 12h82c7 0 12 -5 12 -12v-104c0 -6 -4 -16 -9 -20l-83 -84c-4 -4 -14 -8 -20 -8h-135c-6 0 -16 4 -20 8l-84 84c-4 4 -8 14 -8 20v537c0 7 4 16 8 20z" />
    <glyph glyph-name="D" unicode="D" 
d="M12 0h236c6 0 16 4 20 9l83 83c5 4 9 14 9 20v537c0 7 -4 16 -9 21l-83 83c-4 5 -14 8 -20 8h-236c-7 0 -12 -5 -12 -12v-737c0 -7 5 -12 12 -12zM204 106h-86c-6 0 -12 6 -12 12v525c0 7 6 12 12 12h86c6 0 16 -4 20 -8l21 -21c5 -5 9 -14 9 -21v-449
c0 -6 -4 -16 -9 -20l-21 -21c-4 -5 -14 -9 -20 -9z" />
    <glyph glyph-name="E" unicode="E" horiz-adv-x="406" 
d="M306 748v-82c0 -7 -6 -12 -12 -12h-176c-7 0 -12 -5 -12 -12v-142c0 -7 5 -12 12 -12h133c6 0 12 -6 12 -12v-82c0 -7 -6 -12 -12 -12h-133c-7 0 -12 -6 -12 -12v-252c0 -7 5 -12 12 -12h176c6 0 12 -5 12 -12v-82c0 -7 -6 -12 -12 -12h-282c-7 0 -12 5 -12 12v736
c0 7 5 12 12 12h282c6 0 12 -5 12 -12z" />
    <glyph glyph-name="F" unicode="F" horiz-adv-x="400" 
d="M94 0h-82c-7 0 -12 5 -12 12v737c0 7 5 12 12 12h281c7 0 12 -5 12 -12v-82c0 -6 -5 -12 -12 -12h-175c-7 0 -12 -5 -12 -12v-174c0 -7 5 -12 12 -12h118c7 0 12 -5 12 -12v-82c0 -6 -5 -12 -12 -12h-118c-7 0 -12 -5 -12 -12v-327c0 -7 -6 -12 -12 -12z" />
    <glyph glyph-name="G" unicode="G" horiz-adv-x="459" 
d="M8 669l84 83c4 5 14 9 20 9h135c6 0 15 -4 20 -9l83 -83c5 -5 9 -14 9 -20v-104c0 -7 -6 -12 -12 -12h-82c-7 0 -12 5 -12 12v60c0 6 -4 16 -8 20l-22 21c-4 5 -14 9 -20 9h-47c-7 0 -16 -4 -20 -9l-22 -21c-4 -4 -8 -14 -8 -20v-449c0 -7 4 -16 8 -20l22 -22
c4 -4 13 -8 20 -8h47c6 0 16 4 20 8l22 22c4 4 8 13 8 20v182c0 7 -5 12 -12 12h-50c-7 0 -12 6 -12 12v82c0 7 5 12 12 12h156c6 0 12 -5 12 -12v-332c0 -6 -4 -16 -9 -20l-83 -84c-5 -4 -14 -8 -20 -8h-135c-6 0 -16 4 -20 8l-84 84c-4 4 -8 14 -8 20v537c0 6 4 15 8 20z
" />
    <glyph glyph-name="H" unicode="H" horiz-adv-x="455" 
d="M118 457h119c7 0 12 5 12 12v280c0 7 6 12 12 12h82c7 0 12 -5 12 -12v-737c0 -7 -5 -12 -12 -12h-82c-6 0 -12 5 -12 12v327c0 7 -5 12 -12 12h-119c-7 0 -12 -5 -12 -12v-327c0 -7 -6 -12 -12 -12h-82c-7 0 -12 5 -12 12v737c0 7 5 12 12 12h82c6 0 12 -5 12 -12v-280
c0 -7 5 -12 12 -12z" />
    <glyph glyph-name="I" unicode="I" horiz-adv-x="405" 
d="M96 653h-84c-7 0 -12 6 -12 12v82c0 7 5 12 12 12h301c6 0 12 -5 12 -12v-82c0 -6 -6 -12 -12 -12h-87c-6 0 -12 -5 -12 -12v-523c0 -7 6 -12 12 -12h87c6 0 12 -6 12 -12v-82c0 -7 -6 -12 -12 -12h-301c-7 0 -12 5 -12 12v82c0 6 5 12 12 12h84c7 0 12 5 12 12v523
c0 7 -5 12 -12 12z" />
    <glyph glyph-name="J" unicode="J" horiz-adv-x="468" 
d="M223 114l21 21c5 5 8 14 8 21v595c0 7 6 12 12 12h82c7 0 12 -5 12 -12v-639c0 -7 -4 -16 -8 -21l-83 -83c-5 -4 -14 -8 -21 -8h-134c-7 0 -16 4 -21 8l-83 83c-4 5 -8 14 -8 21v103c0 7 5 12 12 12h82c6 0 12 -5 12 -12v-59c0 -7 4 -16 8 -21l21 -21c5 -4 14 -8 21 -8
h46c7 0 16 4 21 8z" />
    <glyph glyph-name="K" unicode="K" horiz-adv-x="480" 
d="M112 486l146 265c3 6 11 11 18 11h97c6 0 9 -5 6 -11l-146 -265c-3 -6 -4 -16 -2 -22l148 -453c2 -6 -2 -11 -9 -11h-87c-7 0 -14 5 -16 11l-106 325c-2 7 -7 7 -10 1l-39 -71c-3 -6 -6 -16 -6 -23v-231c0 -7 -5 -12 -12 -12h-82c-7 0 -12 5 -12 12v738c0 6 5 12 12 12
h82c7 0 12 -6 12 -12v-262c0 -7 3 -8 6 -2z" />
    <glyph glyph-name="L" unicode="L" horiz-adv-x="427" 
d="M12 759h82c6 0 12 -5 12 -12v-629c0 -7 5 -12 12 -12h197c7 0 12 -6 12 -12v-82c0 -7 -5 -12 -12 -12h-303c-7 0 -12 5 -12 12v735c0 7 5 12 12 12z" />
    <glyph glyph-name="M" unicode="M" horiz-adv-x="517" 
d="M110 746l88 -313c2 -7 5 -7 7 0l90 313c2 7 9 12 15 12h85c6 0 12 -6 12 -12v-734c0 -7 -6 -12 -12 -12h-82c-7 0 -12 5 -12 12v360c0 6 -2 7 -3 0l-62 -213c-2 -6 -8 -11 -15 -11h-40c-7 0 -13 5 -15 11l-59 207c-2 7 -3 6 -3 0v-354c0 -7 -5 -12 -12 -12h-82
c-6 0 -12 5 -12 12v734c0 6 6 12 12 12h84c7 0 14 -5 16 -12z" />
    <glyph glyph-name="N" unicode="N" 
d="M112 750l138 -383c2 -6 4 -6 4 1v382c0 6 6 12 12 12h82c7 0 12 -6 12 -12v-738c0 -7 -5 -12 -12 -12h-66c-7 0 -14 5 -16 11l-154 429c-3 6 -4 5 -4 -1v-427c0 -7 -6 -12 -12 -12h-82c-7 0 -12 5 -12 12v737c0 7 5 12 12 12h82c7 0 14 -5 16 -11z" />
    <glyph glyph-name="O" unicode="O" horiz-adv-x="459" 
d="M8 669l84 83c4 5 14 8 20 8h135c7 0 16 -3 20 -8l84 -83c4 -5 8 -14 8 -21v-536c0 -6 -4 -16 -8 -20l-84 -84c-4 -4 -13 -8 -20 -8h-135c-6 0 -16 4 -20 8l-84 84c-4 4 -8 14 -8 20v536c0 7 4 16 8 21zM224 114l21 22c5 4 9 14 9 20v448c0 7 -4 16 -9 21l-21 21
c-5 5 -14 9 -21 9h-47c-6 0 -16 -4 -20 -9l-22 -21c-4 -5 -8 -14 -8 -21v-448c0 -6 4 -16 8 -20l22 -22c4 -4 14 -8 20 -8h47c7 0 16 4 21 8z" />
    <glyph glyph-name="P" unicode="P" horiz-adv-x="449" 
d="M0 12v737c0 7 5 12 12 12h235c6 0 16 -4 20 -8l83 -83c5 -5 9 -14 9 -21v-249c0 -7 -4 -16 -9 -21l-83 -83c-4 -4 -14 -8 -20 -8h-129c-6 0 -12 -6 -12 -12v-264c0 -7 -5 -12 -12 -12h-81c-7 0 -12 5 -13 12zM223 402l22 21c4 5 8 14 8 21v161c0 7 -4 16 -8 21l-22 21
c-4 4 -13 8 -20 8h-85c-7 0 -12 -5 -12 -12v-237c0 -7 5 -12 12 -12h85c7 0 16 3 20 8z" />
    <glyph glyph-name="Q" unicode="Q" horiz-adv-x="478" 
d="M359 649v-536c0 -6 -3 -14 -7 -18c-3 -3 -2 -10 3 -15l34 -34c5 -5 5 -12 0 -17l-20 -21c-5 -4 -14 -8 -21 -8h-51c-6 0 -15 3 -19 7s-10 4 -13 1c-4 -4 -12 -7 -18 -7h-135c-7 0 -16 4 -20 9l-84 83c-4 5 -8 14 -8 20v536c0 7 4 16 8 21l84 83c4 4 13 8 20 8h135
c6 0 15 -4 20 -8l83 -83c5 -5 9 -14 9 -21zM233 202l11 -11c5 -5 9 -3 9 3v411c0 7 -4 16 -9 21l-21 21c-5 4 -14 8 -20 8h-47c-7 0 -16 -4 -20 -8l-22 -21c-4 -5 -8 -14 -8 -21v-448c0 -6 4 -16 8 -20l22 -21c4 -5 13 -9 20 -9h10c7 0 8 4 4 9l-12 11c-5 5 -5 12 0 17
l58 58c5 5 12 5 17 0z" />
    <glyph glyph-name="R" unicode="R" horiz-adv-x="469" 
d="M360 649v-250c0 -7 -4 -16 -9 -21l-31 -31c-5 -5 -8 -14 -6 -20l55 -315c1 -7 -4 -12 -10 -12h-84c-7 0 -13 5 -14 12l-46 263c-1 6 -7 11 -14 11h-83c-6 0 -12 -5 -11 -11v-263c0 -6 -6 -12 -12 -12h-82c-7 0 -12 5 -13 12v737c0 7 5 12 12 12h235c7 0 16 -4 21 -9
l83 -83c5 -5 9 -14 9 -20zM224 401l21 21c5 5 9 14 9 21v162c0 6 -4 16 -9 20l-21 21c-5 5 -14 9 -20 9h-86c-6 0 -12 -6 -12 -12v-238c0 -7 6 -12 12 -12h86c6 0 15 3 20 8z" />
    <glyph glyph-name="S" unicode="S" horiz-adv-x="459" 
d="M9 669l83 83c5 5 14 9 20 9h135c7 0 16 -4 21 -9l83 -83c4 -5 8 -14 8 -20v-104c0 -7 -5 -12 -12 -12h-82c-6 0 -12 5 -12 12v60c0 6 -3 16 -8 20l-21 22c-5 4 -14 8 -21 8h-47c-6 0 -15 -4 -20 -8l-21 -22c-5 -4 -9 -14 -9 -20v-106c0 -6 4 -16 8 -20l22 -21
c4 -5 13 -9 20 -9h91c6 0 16 -4 20 -8l84 -83c4 -5 8 -14 8 -21v-225c0 -6 -4 -16 -8 -20l-83 -84c-5 -4 -14 -8 -21 -8h-135c-6 0 -15 4 -20 8l-83 84c-5 4 -9 14 -9 20v128c0 7 6 12 12 12h82c7 0 12 -5 12 -12v-84c0 -7 4 -16 9 -21l21 -21c5 -4 14 -8 20 -8h47
c7 0 16 4 21 8l21 21c5 5 8 14 8 21v137c0 7 -3 16 -8 21l-22 21c-4 5 -13 8 -20 8h-91c-6 0 -16 4 -20 9l-84 83c-4 5 -8 14 -8 21v193c0 6 4 15 9 20z" />
    <glyph glyph-name="T" unicode="T" horiz-adv-x="444" 
d="M110 661h-98c-7 0 -12 6 -12 12v77c0 6 5 11 12 11h320c6 0 12 -5 12 -11v-77c0 -6 -6 -12 -12 -12h-98c-7 0 -12 -5 -12 -12v-637c0 -7 -5 -12 -12 -12h-76c-7 0 -12 5 -12 12v637c0 7 -6 12 -12 12z" />
    <glyph glyph-name="U" unicode="U" horiz-adv-x="458" 
d="M223 114l21 21c5 5 8 14 8 21v593c0 7 6 12 12 12h82c7 0 12 -5 12 -12v-637c0 -7 -4 -16 -8 -21l-83 -83c-5 -4 -14 -8 -21 -8h-134c-7 0 -16 4 -21 8l-83 83c-4 5 -8 14 -8 21v637c0 7 5 12 12 12h82c6 0 12 -5 12 -12v-593c0 -7 4 -16 8 -21l21 -21c5 -4 14 -8 21 -8
h46c7 0 16 4 21 8z" />
    <glyph glyph-name="V" unicode="V" horiz-adv-x="497" 
d="M108 750l88 -456c2 -6 4 -6 5 0l88 456c1 6 8 11 14 11h84c7 0 11 -5 10 -11l-143 -738c-1 -7 -7 -12 -14 -12h-82c-7 0 -13 5 -14 12l-144 738c-1 6 3 11 10 11h84c6 0 13 -5 14 -11z" />
    <glyph glyph-name="W" unicode="W" horiz-adv-x="712" 
d="M358 750l72 -448c1 -6 3 -6 4 0l80 448c1 6 7 11 14 11h83c7 0 11 -5 10 -11l-131 -738c-1 -7 -7 -12 -14 -12h-92c-7 0 -13 5 -14 12l-67 415c-1 7 -3 7 -4 0l-66 -415c-1 -7 -8 -12 -14 -12h-92c-7 0 -13 5 -14 12l-133 738c-1 6 3 11 10 11h84c6 0 13 -5 14 -11
l80 -448c1 -6 3 -6 4 0l72 448c1 6 2 11 3 11h14h80h13s3 -5 4 -11z" />
    <glyph glyph-name="X" unicode="X" horiz-adv-x="514" 
d="M211 534l87 217c3 6 10 11 17 11h90c7 0 10 -5 8 -11l-144 -359c-3 -6 -3 -16 0 -23l144 -358c2 -6 -1 -11 -8 -11h-90c-7 0 -14 5 -17 11l-87 216c-2 6 -6 6 -9 0l-86 -216c-3 -6 -10 -11 -17 -11h-90c-7 0 -10 5 -8 11l144 358c3 7 3 17 0 23l-144 359c-3 6 1 11 7 11
h91c6 0 14 -5 16 -11l87 -217c3 -6 7 -6 9 0z" />
    <glyph glyph-name="Y" unicode="Y" horiz-adv-x="513" 
d="M115 750l87 -215c2 -7 6 -7 9 0l87 215c2 6 10 11 16 11h91c6 0 10 -5 7 -11l-148 -367c-2 -6 -4 -17 -4 -23v-348c0 -7 -6 -12 -12 -12h-82c-7 0 -12 5 -12 12v346c0 7 -2 17 -5 23l-148 369c-3 6 1 11 7 11h91c6 0 14 -5 16 -11z" />
    <glyph glyph-name="Z" unicode="Z" horiz-adv-x="480" 
d="M12 759h356c7 0 12 -5 12 -12v-74c0 -7 -2 -17 -5 -23l-252 -533c-3 -6 0 -11 7 -11h238c7 0 12 -6 12 -12v-82c0 -7 -5 -12 -12 -12h-354c-7 0 -12 5 -12 12v83c0 7 2 17 5 23l247 524c3 6 0 11 -6 11h-236c-7 0 -12 6 -12 12v82c0 7 5 12 12 12z" />
    <glyph glyph-name="a" unicode="a" horiz-adv-x="566" 
d="M0 12l176 738c1 6 8 11 15 11h80c7 1 14 -5 15 -11l180 -738c2 -7 -3 -12 -9 -12h-87c-7 0 -13 5 -15 12l-25 105c-1 6 -8 12 -15 11h-164c-7 0 -14 -5 -15 -11l-25 -105c-2 -7 -8 -12 -15 -12h-87c-6 0 -10 5 -9 12zM229 507l-62 -259c-1 -7 3 -12 9 -12h113
c7 0 11 6 9 12l-63 259c-2 7 -5 7 -6 0z" />
    <glyph glyph-name="b" unicode="b" 
d="M0 12v738c0 7 5 12 12 12h236c6 0 15 -4 20 -9l83 -83c5 -5 9 -14 9 -20v-189c0 -7 -4 -16 -9 -20l-29 -30c-5 -5 -5 -13 -1 -17l31 -31c4 -5 8 -14 8 -20v-231c0 -6 -4 -15 -9 -20l-83 -83c-5 -5 -14 -9 -20 -9h-130h-12h-12h-82c-7 0 -12 5 -12 12zM204 656h-86
c-7 0 -12 -5 -12 -12v-177c0 -7 5 -12 12 -12h86c6 0 16 3 20 8l22 21c4 5 8 14 8 21v101c0 6 -4 16 -8 20l-22 22c-4 4 -14 8 -20 8zM224 114l22 22c4 4 8 14 8 20v143c0 7 -4 16 -8 21l-20 20c-5 5 -14 9 -20 9h-88c-7 0 -12 -6 -12 -12v-219c0 -7 5 -12 12 -12h86
c6 0 16 4 20 8z" />
    <glyph glyph-name="c" unicode="c" horiz-adv-x="459" 
d="M8 669l84 84c4 4 14 8 20 8h135c6 0 16 -4 20 -8l83 -84c5 -4 9 -13 9 -20v-104c0 -6 -5 -12 -12 -12h-82c-6 0 -12 6 -12 12v60c0 7 -4 16 -8 21l-22 21c-4 4 -13 8 -20 8h-47c-7 0 -16 -4 -20 -8l-22 -21c-4 -5 -8 -14 -8 -21v-449c0 -7 4 -16 8 -20l22 -22
c4 -4 13 -8 20 -8h47c7 0 16 4 20 8l22 22c4 4 8 13 8 20v60c0 7 6 12 12 12h82c7 0 12 -5 12 -12v-104c0 -6 -4 -16 -9 -20l-83 -84c-4 -4 -14 -8 -20 -8h-135c-6 0 -16 4 -20 8l-84 84c-4 4 -8 14 -8 20v537c0 7 4 16 8 20z" />
    <glyph glyph-name="d" unicode="d" horiz-adv-x="461" 
d="M12 0h236c6 0 16 4 20 9l83 83c5 4 9 14 9 20v537c0 7 -4 16 -9 21l-83 83c-4 5 -14 8 -20 8h-236c-7 0 -12 -5 -12 -12v-737c0 -7 5 -12 12 -12zM204 106h-86c-6 0 -12 6 -12 12v525c0 7 6 12 12 12h86c6 0 16 -4 20 -8l21 -21c5 -5 9 -14 9 -21v-449
c0 -6 -4 -16 -9 -20l-21 -21c-4 -5 -14 -9 -20 -9z" />
    <glyph glyph-name="e" unicode="e" horiz-adv-x="406" 
d="M306 748v-82c0 -7 -6 -12 -12 -12h-176c-7 0 -12 -5 -12 -12v-142c0 -7 5 -12 12 -12h133c6 0 12 -6 12 -12v-82c0 -7 -6 -12 -12 -12h-133c-7 0 -12 -6 -12 -12v-252c0 -7 5 -12 12 -12h176c6 0 12 -5 12 -12v-82c0 -7 -6 -12 -12 -12h-282c-7 0 -12 5 -12 12v736
c0 7 5 12 12 12h282c6 0 12 -5 12 -12z" />
    <glyph glyph-name="f" unicode="f" horiz-adv-x="405" 
d="M94 0h-82c-7 0 -12 5 -12 12v737c0 7 5 12 12 12h281c7 0 12 -5 12 -12v-82c0 -6 -5 -12 -12 -12h-175c-7 0 -12 -5 -12 -12v-174c0 -7 5 -12 12 -12h118c7 0 12 -5 12 -12v-82c0 -6 -5 -12 -12 -12h-118c-7 0 -12 -5 -12 -12v-327c0 -7 -6 -12 -12 -12z" />
    <glyph glyph-name="g" unicode="g" horiz-adv-x="459" 
d="M8 669l84 83c4 5 14 9 20 9h135c6 0 15 -4 20 -9l83 -83c5 -5 9 -14 9 -20v-104c0 -7 -6 -12 -12 -12h-82c-7 0 -12 5 -12 12v60c0 6 -4 16 -8 20l-22 21c-4 5 -14 9 -20 9h-47c-7 0 -16 -4 -20 -9l-22 -21c-4 -4 -8 -14 -8 -20v-449c0 -7 4 -16 8 -20l22 -22
c4 -4 13 -8 20 -8h47c6 0 16 4 20 8l22 22c4 4 8 13 8 20v182c0 7 -5 12 -12 12h-50c-7 0 -12 6 -12 12v82c0 7 5 12 12 12h156c6 0 12 -5 12 -12v-332c0 -6 -4 -16 -9 -20l-83 -84c-5 -4 -14 -8 -20 -8h-135c-6 0 -16 4 -20 8l-84 84c-4 4 -8 14 -8 20v537c0 6 4 15 8 20z
" />
    <glyph glyph-name="h" unicode="h" horiz-adv-x="455" 
d="M118 457h119c7 0 12 5 12 12v280c0 7 6 12 12 12h82c7 0 12 -5 12 -12v-737c0 -7 -5 -12 -12 -12h-82c-6 0 -12 5 -12 12v327c0 7 -5 12 -12 12h-119c-7 0 -12 -5 -12 -12v-327c0 -7 -6 -12 -12 -12h-82c-7 0 -12 5 -12 12v737c0 7 5 12 12 12h82c6 0 12 -5 12 -12v-280
c0 -7 5 -12 12 -12z" />
    <glyph glyph-name="i" unicode="i" horiz-adv-x="390" 
d="M76 653h-84c-7 0 -12 6 -12 12v82c0 7 5 12 12 12h301c6 0 12 -5 12 -12v-82c0 -6 -6 -12 -12 -12h-87c-6 0 -12 -5 -12 -12v-523c0 -7 6 -12 12 -12h87c6 0 12 -6 12 -12v-82c0 -7 -6 -12 -12 -12h-301c-7 0 -12 5 -12 12v82c0 6 5 12 12 12h84c7 0 12 5 12 12v523
c0 7 -5 12 -12 12z" />
    <glyph glyph-name="j" unicode="j" horiz-adv-x="468" 
d="M223 114l21 21c5 5 8 14 8 21v595c0 7 6 12 12 12h82c7 0 12 -5 12 -12v-639c0 -7 -4 -16 -8 -21l-83 -83c-5 -4 -14 -8 -21 -8h-134c-7 0 -16 4 -21 8l-83 83c-4 5 -8 14 -8 21v103c0 7 5 12 12 12h82c6 0 12 -5 12 -12v-59c0 -7 4 -16 8 -21l21 -21c5 -4 14 -8 21 -8
h46c7 0 16 4 21 8z" />
    <glyph glyph-name="k" unicode="k" horiz-adv-x="480" 
d="M112 486l146 265c3 6 11 11 18 11h97c6 0 9 -5 6 -11l-146 -265c-3 -6 -4 -16 -2 -22l148 -453c2 -6 -2 -11 -9 -11h-87c-7 0 -14 5 -16 11l-106 325c-2 7 -7 7 -10 1l-39 -71c-3 -6 -6 -16 -6 -23v-231c0 -7 -5 -12 -12 -12h-82c-7 0 -12 5 -12 12v738c0 6 5 12 12 12
h82c7 0 12 -6 12 -12v-262c0 -7 3 -8 6 -2z" />
    <glyph glyph-name="l" unicode="l" horiz-adv-x="412" 
d="M12 759h82c6 0 12 -5 12 -12v-629c0 -7 5 -12 12 -12h197c7 0 12 -6 12 -12v-82c0 -7 -5 -12 -12 -12h-303c-7 0 -12 5 -12 12v735c0 7 5 12 12 12z" />
    <glyph glyph-name="m" unicode="m" horiz-adv-x="520" 
d="M113 746l88 -313c2 -7 5 -7 7 0l90 313c2 7 9 12 15 12h85c6 0 12 -6 12 -12v-734c0 -7 -6 -12 -12 -12h-82c-7 0 -12 5 -12 12v360c0 6 -2 7 -3 0l-62 -213c-2 -6 -8 -11 -15 -11h-40c-7 0 -13 5 -15 11l-59 207c-2 7 -3 6 -3 0v-354c0 -7 -5 -12 -12 -12h-82
c-6 0 -12 5 -12 12v734c0 6 6 12 12 12h84c7 0 14 -5 16 -12z" />
    <glyph glyph-name="n" unicode="n" horiz-adv-x="456" 
d="M108 750l138 -383c2 -6 4 -6 4 1v382c0 6 6 12 12 12h82c7 0 12 -6 12 -12v-738c0 -7 -5 -12 -12 -12h-66c-7 0 -14 5 -16 11l-154 429c-3 6 -4 5 -4 -1v-427c0 -7 -6 -12 -12 -12h-82c-7 0 -12 5 -12 12v737c0 7 5 12 12 12h82c7 0 14 -5 16 -11z" />
    <glyph glyph-name="o" unicode="o" horiz-adv-x="459" 
d="M8 669l84 83c4 5 14 8 20 8h135c7 0 16 -3 20 -8l84 -83c4 -5 8 -14 8 -21v-536c0 -6 -4 -16 -8 -20l-84 -84c-4 -4 -13 -8 -20 -8h-135c-6 0 -16 4 -20 8l-84 84c-4 4 -8 14 -8 20v536c0 7 4 16 8 21zM224 114l21 22c5 4 9 14 9 20v448c0 7 -4 16 -9 21l-21 21
c-5 5 -14 9 -21 9h-47c-6 0 -16 -4 -20 -9l-22 -21c-4 -5 -8 -14 -8 -21v-448c0 -6 4 -16 8 -20l22 -22c4 -4 14 -8 20 -8h47c7 0 16 4 21 8z" />
    <glyph glyph-name="p" unicode="p" horiz-adv-x="449" 
d="M0 12v737c0 7 5 12 12 12h235c6 0 16 -4 20 -8l83 -83c5 -5 9 -14 9 -21v-249c0 -7 -4 -16 -9 -21l-83 -83c-4 -4 -14 -8 -20 -8h-129c-6 0 -12 -6 -12 -12v-264c0 -7 -5 -12 -12 -12h-81c-7 0 -12 5 -13 12zM223 402l22 21c4 5 8 14 8 21v161c0 7 -4 16 -8 21l-22 21
c-4 4 -13 8 -20 8h-85c-7 0 -12 -5 -12 -12v-237c0 -7 5 -12 12 -12h85c7 0 16 3 20 8z" />
    <glyph glyph-name="q" unicode="q" horiz-adv-x="478" 
d="M359 649v-536c0 -6 -3 -14 -7 -18c-3 -3 -2 -10 3 -15l34 -34c5 -5 5 -12 0 -17l-20 -21c-5 -4 -14 -8 -21 -8h-51c-6 0 -15 3 -19 7s-10 4 -13 1c-4 -4 -12 -7 -18 -7h-135c-7 0 -16 4 -20 9l-84 83c-4 5 -8 14 -8 20v536c0 7 4 16 8 21l84 83c4 4 13 8 20 8h135
c6 0 15 -4 20 -8l83 -83c5 -5 9 -14 9 -21zM233 202l11 -11c5 -5 9 -3 9 3v411c0 7 -4 16 -9 21l-21 21c-5 4 -14 8 -20 8h-47c-7 0 -16 -4 -20 -8l-22 -21c-4 -5 -8 -14 -8 -21v-448c0 -6 4 -16 8 -20l22 -21c4 -5 13 -9 20 -9h10c7 0 8 4 4 9l-12 11c-5 5 -5 12 0 17
l58 58c5 5 12 5 17 0z" />
    <glyph glyph-name="r" unicode="r" horiz-adv-x="469" 
d="M360 649v-250c0 -7 -4 -16 -9 -21l-31 -31c-5 -5 -8 -14 -6 -20l55 -315c1 -7 -4 -12 -10 -12h-84c-7 0 -13 5 -14 12l-46 263c-1 6 -7 11 -14 11h-83c-6 0 -12 -5 -11 -11v-263c0 -6 -6 -12 -12 -12h-82c-7 0 -12 5 -13 12v737c0 7 5 12 12 12h235c7 0 16 -4 21 -9
l83 -83c5 -5 9 -14 9 -20zM224 401l21 21c5 5 9 14 9 21v162c0 6 -4 16 -9 20l-21 21c-5 5 -14 9 -20 9h-86c-6 0 -12 -6 -12 -12v-238c0 -7 6 -12 12 -12h86c6 0 15 3 20 8z" />
    <glyph glyph-name="s" unicode="s" horiz-adv-x="459" 
d="M9 669l83 83c5 5 14 9 20 9h135c7 0 16 -4 21 -9l83 -83c4 -5 8 -14 8 -20v-104c0 -7 -5 -12 -12 -12h-82c-6 0 -12 5 -12 12v60c0 6 -3 16 -8 20l-21 22c-5 4 -14 8 -21 8h-47c-6 0 -15 -4 -20 -8l-21 -22c-5 -4 -9 -14 -9 -20v-106c0 -6 4 -16 8 -20l22 -21
c4 -5 13 -9 20 -9h91c6 0 16 -4 20 -8l84 -83c4 -5 8 -14 8 -21v-225c0 -6 -4 -16 -8 -20l-83 -84c-5 -4 -14 -8 -21 -8h-135c-6 0 -15 4 -20 8l-83 84c-5 4 -9 14 -9 20v128c0 7 6 12 12 12h82c7 0 12 -5 12 -12v-84c0 -7 4 -16 9 -21l21 -21c5 -4 14 -8 20 -8h47
c7 0 16 4 21 8l21 21c5 5 8 14 8 21v137c0 7 -3 16 -8 21l-22 21c-4 5 -13 8 -20 8h-91c-6 0 -16 4 -20 9l-84 83c-4 5 -8 14 -8 21v193c0 6 4 15 9 20z" />
    <glyph glyph-name="t" unicode="t" horiz-adv-x="444" 
d="M110 661h-98c-7 0 -12 6 -12 12v77c0 6 5 11 12 11h320c6 0 12 -5 12 -11v-77c0 -6 -6 -12 -12 -12h-98c-7 0 -12 -5 -12 -12v-637c0 -7 -5 -12 -12 -12h-76c-7 0 -12 5 -12 12v637c0 7 -6 12 -12 12z" />
    <glyph glyph-name="u" unicode="u" horiz-adv-x="458" 
d="M223 114l21 21c5 5 8 14 8 21v593c0 7 6 12 12 12h82c7 0 12 -5 12 -12v-637c0 -7 -4 -16 -8 -21l-83 -83c-5 -4 -14 -8 -21 -8h-134c-7 0 -16 4 -21 8l-83 83c-4 5 -8 14 -8 21v637c0 7 5 12 12 12h82c6 0 12 -5 12 -12v-593c0 -7 4 -16 8 -21l21 -21c5 -4 14 -8 21 -8
h46c7 0 16 4 21 8z" />
    <glyph glyph-name="v" unicode="v" horiz-adv-x="487" 
d="M108 750l88 -456c2 -6 4 -6 5 0l88 456c1 6 8 11 14 11h84c7 0 11 -5 10 -11l-143 -738c-1 -7 -7 -12 -14 -12h-82c-7 0 -13 5 -14 12l-144 738c-1 6 3 11 10 11h84c6 0 13 -5 14 -11z" />
    <glyph glyph-name="w" unicode="w" horiz-adv-x="712" 
d="M358 750l72 -448c1 -6 3 -6 4 0l80 448c1 6 7 11 14 11h83c7 0 11 -5 10 -11l-131 -738c-1 -7 -7 -12 -14 -12h-92c-7 0 -13 5 -14 12l-67 415c-1 7 -3 7 -4 0l-66 -415c-1 -7 -8 -12 -14 -12h-92c-7 0 -13 5 -14 12l-133 738c-1 6 3 11 10 11h84c6 0 13 -5 14 -11
l80 -448c1 -6 3 -6 4 0l72 448c1 6 2 11 3 11h14h80h13s3 -5 4 -11z" />
    <glyph glyph-name="x" unicode="x" horiz-adv-x="514" 
d="M211 534l87 217c3 6 10 11 17 11h90c7 0 10 -5 8 -11l-144 -359c-3 -6 -3 -16 0 -23l144 -358c2 -6 -1 -11 -8 -11h-90c-7 0 -14 5 -17 11l-87 216c-2 6 -6 6 -9 0l-86 -216c-3 -6 -10 -11 -17 -11h-90c-7 0 -10 5 -8 11l144 358c3 7 3 17 0 23l-144 359c-3 6 1 11 7 11
h91c6 0 14 -5 16 -11l87 -217c3 -6 7 -6 9 0z" />
    <glyph glyph-name="y" unicode="y" horiz-adv-x="503" 
d="M115 750l87 -215c2 -7 6 -7 9 0l87 215c2 6 10 11 16 11h91c6 0 10 -5 7 -11l-148 -367c-2 -6 -4 -17 -4 -23v-348c0 -7 -6 -12 -12 -12h-82c-7 0 -12 5 -12 12v346c0 7 -2 17 -5 23l-148 369c-3 6 1 11 7 11h91c6 0 14 -5 16 -11z" />
    <glyph glyph-name="z" unicode="z" horiz-adv-x="480" 
d="M12 759h356c7 0 12 -5 12 -12v-74c0 -7 -2 -17 -5 -23l-252 -533c-3 -6 0 -11 7 -11h238c7 0 12 -6 12 -12v-82c0 -7 -5 -12 -12 -12h-354c-7 0 -12 5 -12 12v83c0 7 2 17 5 23l247 524c3 6 0 11 -6 11h-236c-7 0 -12 6 -12 12v82c0 7 5 12 12 12z" />
    <glyph glyph-name="zero" unicode="0" 
d="M112 0h135c7 0 16 4 20 8l84 84c4 4 8 14 8 20v536c0 7 -4 16 -8 20l-84 84c-4 4 -13 8 -20 8h-135c-6 0 -16 -4 -20 -8l-84 -83c-4 -5 -8 -14 -8 -21v-536c0 -6 4 -16 8 -20l84 -84c4 -4 14 -8 20 -8zM203 106h-47c-7 0 -16 4 -20 8l-22 22c-4 4 -8 13 -8 20v448
c0 7 4 16 8 21l22 21c4 5 13 9 20 9h47c7 0 16 -4 21 -9l21 -21c5 -5 8 -14 8 -21v-448c0 -7 -3 -16 -8 -20l-21 -22c-5 -4 -14 -8 -21 -8z" />
    <glyph glyph-name="one" unicode="1" horiz-adv-x="400" 
d="M236 750v-632c0 -6 5 -12 12 -12h65c7 0 12 -5 12 -12v-82c0 -7 -5 -12 -12 -12h-65h-24h-83h-24h-63c-7 0 -12 5 -12 12v82c0 7 5 12 12 12h63c7 0 12 6 12 12v432c0 7 -2 8 -6 2l-29 -52c-4 -6 -11 -8 -17 -4l-71 41c-6 3 -8 10 -4 16l113 198c4 6 8 11 10 11h16h29h24
h30c6 0 12 -6 12 -12z" />
    <glyph glyph-name="two" unicode="2" 
d="M12 0h335c6 0 12 5 12 12v82c0 6 -5 12 -12 13h-229c-7 0 -12 5 -12 12v174c0 7 4 16 8 21l22 21c5 5 14 9 20 9h91c7 0 16 4 21 8l83 84c5 4 9 13 8 20v193c0 7 -4 16 -8 21l-84 83c-4 5 -13 9 -20 9h-135c-6 0 -16 -4 -20 -9l-84 -83c-4 -5 -8 -14 -8 -21v-103
c0 -7 5 -12 12 -12h82c7 0 12 5 12 12v60c0 6 4 15 8 20l22 21c4 5 14 9 20 9h47c7 0 16 -4 21 -9l21 -21c5 -5 8 -14 9 -21v-105c0 -7 -4 -16 -9 -21l-21 -21c-5 -5 -14 -8 -21 -8h-90c-7 0 -16 -4 -21 -9l-84 -83c-4 -5 -8 -14 -8 -21v-325c0 -7 5 -12 12 -12z" />
    <glyph glyph-name="three" unicode="3" 
d="M360 649v-185c0 -6 -4 -16 -8 -20l-31 -31c-5 -4 -5 -12 0 -17l31 -30c4 -5 8 -14 8 -21v-233c0 -6 -4 -15 -9 -20l-83 -84c-5 -4 -14 -8 -21 -8h-135c-6 0 -15 4 -20 8l-84 84c-4 5 -8 14 -8 20v104c0 7 5 12 12 12h82c7 0 12 -5 12 -12v-60c0 -6 4 -16 9 -20l21 -21
c4 -5 14 -9 20 -9h47c7 0 16 4 21 9l21 21c5 5 9 14 9 20v145c0 7 -4 16 -9 21l-21 21c-5 5 -14 9 -20 9h-69c-7 0 -12 5 -12 12v82c0 6 5 12 12 12h69c6 0 15 4 20 8l21 22c5 4 9 13 9 20v97c0 7 -4 16 -9 21l-21 21c-5 5 -14 8 -21 8h-47c-6 0 -16 -3 -20 -8l-21 -21
c-5 -5 -9 -14 -9 -21v-60c0 -7 -5 -12 -12 -12h-82c-7 0 -12 5 -12 12v104c0 7 4 16 8 21l84 83c5 5 14 8 20 8h135c7 0 16 -3 21 -8l83 -83c5 -5 9 -14 9 -21z" />
    <glyph glyph-name="four" unicode="4" horiz-adv-x="462" 
d="M7 484l180 267c4 5 12 10 19 10h90c6 0 12 -6 12 -12v-305c0 -7 5 -12 12 -12h30c6 0 12 -6 12 -12v-83c0 -6 -6 -12 -12 -12h-30c-7 0 -12 -5 -12 -12v-301c0 -7 -6 -12 -12 -12h-83c-6 0 -12 5 -12 12v301c0 7 -5 12 -12 12h-177c-7 0 -12 6 -12 12v125c0 6 3 16 7 22z
M112 432h77c7 0 12 5 12 12v125c0 7 -3 8 -7 2l-87 -129c-4 -6 -1 -10 5 -10z" />
    <glyph glyph-name="five" unicode="5" horiz-adv-x="459" 
d="M105 0h134c7 0 16 4 21 8l83 84c5 4 9 14 9 20v265c0 6 -4 15 -9 20l-83 83c-4 5 -14 9 -20 9h-91c-7 0 -16 4 -21 8l-21 22c-5 4 -8 13 -8 20v103c0 7 5 12 11 13h229c7 0 12 5 12 12v82c0 6 -5 12 -12 12h-334c-7 0 -12 -6 -12 -12v-254c0 -6 4 -16 8 -20l84 -83
c4 -5 14 -9 20 -9h91c6 0 16 -4 20 -8l22 -22c4 -4 8 -13 8 -20v-177c0 -7 -4 -16 -9 -20l-21 -22c-5 -4 -14 -8 -20 -8h-47c-7 0 -16 4 -21 8l-21 21c-5 5 -8 14 -8 21v60c0 6 -6 12 -12 12h-82c-7 0 -12 -6 -12 -12v-104c0 -6 4 -16 8 -20l83 -84c5 -4 14 -8 21 -8z" />
    <glyph glyph-name="six" unicode="6" 
d="M113 0h135c6 0 15 4 20 8l83 84c5 5 9 14 9 20v217c0 7 -4 16 -9 21l-83 83c-5 5 -14 9 -20 9h-130c-6 0 -12 5 -12 12v151c0 7 4 16 9 21l21 21c5 5 14 8 21 8h47c6 0 15 -3 20 -8l21 -21c5 -5 9 -14 9 -21v-60c0 -7 5 -12 12 -12h82c7 0 12 5 12 12v104
c0 7 -4 16 -9 21l-83 83c-5 5 -14 8 -20 8h-135c-7 0 -16 -3 -21 -8l-83 -83c-5 -5 -9 -14 -9 -21v-537c0 -6 4 -15 9 -20l83 -84c5 -4 14 -8 21 -8zM204 106h-47c-7 0 -16 4 -21 9l-21 21c-5 4 -9 14 -9 20v129c0 7 4 16 9 21l21 21c5 5 14 9 20 9h48c6 0 15 -4 20 -9
l21 -21c5 -5 9 -14 9 -21v-129c0 -6 -4 -16 -9 -20l-21 -21c-5 -5 -14 -9 -20 -9z" />
    <glyph glyph-name="seven" unicode="7" horiz-adv-x="476" 
d="M12 758h350c7 0 12 -6 12 -12v-84c0 -6 -2 -17 -4 -23l-69 -199c-2 -6 1 -11 8 -11h21c6 0 12 -6 12 -12v-82c0 -6 -6 -12 -12 -12h-58c-6 0 -13 -5 -15 -11l-105 -301c-2 -6 -9 -11 -16 -11h-91c-6 0 -10 5 -8 11l105 301c2 6 -2 11 -9 11h-46c-6 0 -12 6 -12 12v82
c0 6 6 12 12 12h83c7 0 14 5 16 11l70 201c2 6 -2 11 -8 11h-236c-7 0 -12 5 -12 12v82c0 6 5 12 12 12z" />
    <glyph glyph-name="eight" unicode="8" horiz-adv-x="452" 
d="M263 753l81 -82c5 -4 9 -13 9 -20v-177c0 -6 -4 -15 -9 -20l-30 -30c-4 -4 -4 -12 0 -16l30 -30c5 -5 9 -14 9 -20v-248c0 -6 -4 -15 -9 -20l-81 -82c-5 -4 -14 -8 -21 -8h-132c-6 0 -15 4 -20 8l-82 82c-4 5 -8 14 -8 20v248c0 6 4 15 8 20l30 30c5 4 5 12 0 16l-30 30
c-4 5 -8 14 -8 20v177c0 7 4 16 8 20l82 82c5 5 14 8 20 8h132c7 0 16 -3 21 -8zM199 657h-46c-6 0 -15 -3 -20 -8l-21 -21c-4 -4 -8 -13 -8 -20v-91c0 -6 4 -15 8 -20l21 -21c5 -4 14 -8 20 -8h46c7 0 16 4 20 8l21 21c5 5 9 14 9 20v91c0 7 -4 16 -9 20l-21 21
c-4 5 -13 8 -20 8zM219 112l21 21c5 5 9 14 9 20v162c0 6 -4 15 -9 20l-21 21c-4 4 -13 8 -20 8h-46c-6 0 -15 -4 -20 -8l-21 -21c-4 -5 -8 -14 -8 -20v-162c0 -6 4 -15 8 -20l21 -21c5 -4 14 -8 20 -8h46c7 0 16 4 20 8z" />
    <glyph glyph-name="nine" unicode="9" 
d="M112 0h135c7 0 16 4 21 8l83 84c5 5 9 14 9 20v537c0 7 -4 16 -9 21l-83 83c-5 5 -14 8 -21 8h-135c-6 0 -15 -3 -20 -8l-84 -83c-4 -5 -8 -14 -8 -21v-217c0 -6 4 -15 8 -20l84 -84c5 -4 14 -8 20 -8h130c6 0 12 -6 12 -12v-152c0 -6 -4 -15 -9 -20l-21 -21
c-5 -5 -14 -9 -21 -9h-47c-6 0 -16 4 -20 9l-21 21c-5 5 -9 14 -9 20v60c0 7 -5 12 -12 12h-82c-7 0 -12 -5 -12 -12v-104c0 -6 4 -15 8 -20l84 -84c5 -4 14 -8 20 -8zM204 426h-48c-6 0 -16 4 -20 8l-21 22c-5 4 -9 14 -9 20v129c0 7 4 16 9 21l21 21c4 5 14 8 20 8h47
c7 0 16 -3 21 -8l21 -21c5 -5 9 -14 9 -21v-129c0 -6 -4 -16 -9 -20l-21 -22c-5 -4 -14 -8 -20 -8z" />
    <glyph glyph-name="colon" unicode=":" horiz-adv-x="206" 
d="M12 364h82c7 0 12 6 12 12v83c0 6 -5 12 -12 12h-82c-7 0 -12 -6 -12 -12v-83c0 -6 5 -12 12 -12zM12 0h82c7 0 12 5 12 12v82c0 7 -5 12 -12 12h-82c-7 0 -12 -5 -12 -12v-82c0 -7 5 -12 12 -12z" />
    <glyph glyph-name="comma" unicode="," horiz-adv-x="196" 
d="M0 13v81c0 7 5 12 12 12h81c7 0 12 -5 12 -12v-81v-24v-2v-13s-4 -4 -8 -9l-28 -28c-5 -4 -9 -8 -9 -8h-12h-29c-6 0 -12 5 -12 12v24v12h1h12h8h12s4 4 9 8c4 5 8 9 8 9v4c0 1 -5 3 -12 3h-33c-7 0 -12 5 -12 12z" />
    <glyph glyph-name="exclam" unicode="!" horiz-adv-x="206" 
d="M12 202h82c7 0 12 6 12 12v536c0 6 -5 12 -12 12h-82c-7 0 -12 -6 -12 -12v-536c0 -6 5 -12 12 -12zM94 0h-82c-7 0 -12 5 -12 12v82c0 7 5 12 12 12h82c7 0 12 -5 12 -12v-82c0 -7 -5 -12 -12 -12z" />
    <glyph glyph-name="period" unicode="." horiz-adv-x="206" 
d="M12 0h82c7 0 12 5 12 12v82c0 7 -5 12 -12 12h-82c-7 0 -12 -5 -12 -12v-82c0 -7 5 -12 12 -12z" />
    <glyph glyph-name="question" unicode="?" 
d="M137 201h82c7 0 12 6 12 12v118c0 7 6 12 12 12h5c6 0 15 4 20 8l83 84c5 5 9 14 9 20v194c0 7 -4 16 -9 20l-83 84c-5 5 -14 8 -21 8h-135c-6 0 -15 -3 -20 -8l-84 -84c-4 -4 -8 -13 -8 -20v-104c0 -7 5 -12 12 -12h82c7 0 12 5 12 12v60c0 7 4 16 9 21l21 21
c4 4 14 8 20 8h47c7 0 16 -4 21 -8l21 -22c5 -4 9 -13 9 -20v-106c0 -6 -4 -16 -9 -20l-21 -22c-5 -4 -14 -8 -20 -8h-67c-6 0 -12 -5 -12 -12v-224c0 -6 6 -12 12 -12zM221 0h-82c-7 0 -12 5 -12 12v82c0 7 5 12 12 12h82c7 0 12 -5 12 -12v-82c0 -7 -5 -12 -12 -12z" />
    <glyph glyph-name="quotesingle" unicode="'" horiz-adv-x="185" 
d="M0 691v81c0 7 5 12 12 12h81c7 0 12 -5 12 -12v-81v-24v-2v-13s-4 -4 -8 -9l-28 -28c-5 -4 -9 -8 -9 -8h-12h-29c-6 0 -12 5 -12 12v24v12h1h12h8h12s4 4 9 8c4 5 8 9 8 9v4c0 1 -5 3 -12 3h-33c-7 0 -12 5 -12 12z" />
    <glyph glyph-name="semicolon" unicode=";" horiz-adv-x="206" 
d="M12 365h82c7 0 12 5 12 12v82c0 6 -5 12 -12 12h-82c-7 0 -12 -6 -12 -12v-82c0 -7 5 -12 12 -12zM0 12v82c0 7 6 12 12 12h82c7 0 12 -5 12 -12v-82v-24v-2v-12l-9 -9l-28 -28l-9 -9h-12h-29c-6 0 -12 5 -12 12v25v12l1 -1h12h8h12c0 1 4 4 9 9l9 9v3c0 2 -6 3 -12 3
h-34c-6 0 -12 6 -12 12z" />
    <glyph glyph-name="slash" unicode="/" horiz-adv-x="600" 
d="M235 759h82c6 0 12 -5 12 -12l-223 -735c0 -7 -6 -12 -12 -12h-82c-7 0 -12 5 -12 12l223 735c0 7 5 12 12 12z" />
    <glyph glyph-name="underscore" unicode="_" horiz-adv-x="612" 
d="M505 0h-397c-7 0 -13 -6 -13 -13v-76c0 -8 6 -14 13 -14h397c7 0 13 6 13 14v76c0 7 -6 13 -13 13z" />
    <glyph glyph-name="hyphen" unicode="-" horiz-adv-x="592" 
d="M405 368h-218c-7 0 -12 -6 -12 -12v-69c0 -7 5 -12 12 -12h218c7 0 12 5 12 12v69c0 6 -5 12 -12 12z" />
    <glyph glyph-name="space" unicode=" " horiz-adv-x="250" 
 />
  </font>
</defs>
</svg>
